<svg xmlns="http://www.w3.org/2000/svg" viewBox="0 0 1000 750" width="1000" height="750" role="img" aria-label="Ilustracao da costa da Africa do Sul: sol grande, acacias de copa achatada e savana">
<title>Ilustracao da costa da Africa do Sul: sol grande, acacias de copa achatada e savana</title>
<defs><linearGradient id="ceu" x1="0" y1="0" x2="0" y2="1"><stop offset="0" stop-color="#F7E7D2"/><stop offset="0.36" stop-color="#F2D9BE"/><stop offset="0.68" stop-color="#E6CFB2"/><stop offset="1" stop-color="#D9C3A6"/></linearGradient><linearGradient id="mar2011" x1="0" y1="0" x2="0" y2="1"><stop offset="0" stop-color="#C0C9B4"/><stop offset="1" stop-color="#9AA891"/></linearGradient><radialGradient id="brilho" cx="51.2%" cy="39.5%" r="46%"><stop offset="0" stop-color="#FBEBD6" stop-opacity="0.62"/><stop offset="0.42" stop-color="#FBEBD6" stop-opacity="0.2"/><stop offset="1" stop-color="#FBEBD6" stop-opacity="0"/></radialGradient><linearGradient id="veu" x1="0" y1="0" x2="0" y2="1"><stop offset="0" stop-color="#F1ECE2" stop-opacity="0.14"/><stop offset="0.5" stop-color="#F1ECE2" stop-opacity="0.02"/><stop offset="1" stop-color="#2A2A22" stop-opacity="0.1"/></linearGradient></defs>
<rect width="1000" height="750" fill="url(#ceu)"/>
<rect width="1000" height="750" fill="url(#brilho)"/>
<circle cx="512" cy="296" r="204.8" fill="none" stroke="#E3A874" stroke-width="2" opacity=".3"/>
<circle cx="512" cy="296" r="128" fill="#E3A874" opacity="1"/>
<path d="M0,506 C125,506 125,492 250,492 C375,492 375,508 500,508 C625,508 625,490 750,490 C875,490 875,504 1000,504 L1000,560 L0,560 Z" fill="#C2AE92" opacity="0.6"/>
<rect x="0" y="556" width="1000" height="194" fill="url(#mar2011)"/>
<rect x="422.9" y="571.5" width="116.1" height="2.6" rx="1.3" fill="#F2EFE2" opacity="0.24"/><rect x="694.9" y="579.8" width="68.3" height="2.6" rx="1.3" fill="#F2EFE2" opacity="0.24"/><rect x="455" y="581.5" width="66" height="2.6" rx="1.3" fill="#F2EFE2" opacity="0.24"/><rect x="314.6" y="591.2" width="217.8" height="2.6" rx="1.3" fill="#F2EFE2" opacity="0.24"/><rect x="503" y="594.4" width="109.4" height="2.6" rx="1.3" fill="#F2EFE2" opacity="0.24"/><rect x="134.8" y="598.9" width="87.6" height="2.6" rx="1.3" fill="#F2EFE2" opacity="0.24"/><rect x="455.7" y="608.4" width="147.7" height="2.6" rx="1.3" fill="#F2EFE2" opacity="0.24"/><rect x="169.2" y="612.2" width="115.3" height="2.6" rx="1.3" fill="#F2EFE2" opacity="0.24"/><rect x="777.4" y="617.6" width="178.7" height="2.6" rx="1.3" fill="#F2EFE2" opacity="0.24"/><rect x="62.7" y="625.2" width="269" height="2.6" rx="1.3" fill="#F2EFE2" opacity="0.24"/>
<path d="M0,626 C125,626 125,612 250,612 C375,612 375,630 500,630 C625,630 625,610 750,610 C875,610 875,624 1000,624 L1000,750 L0,750 Z" fill="#A79771"/>
<path d="M168,660 L168,559.2" stroke="#5A5540" stroke-width="8.4" stroke-linecap="round" fill="none"/><path d="M168,586.1 L131,545.8 M168,576 L208.3,542.4" stroke="#5A5540" stroke-width="5.7" stroke-linecap="round" fill="none"/><path d="M90.7,535.7 Q168,481.9 245.3,535.7 Q168,522.2 90.7,535.7 Z" fill="#5A5540"/>
<path d="M302,654 L302,579.6" stroke="#635D46" stroke-width="6.2" stroke-linecap="round" fill="none"/><path d="M302,599.4 L274.7,569.7 M302,592 L331.8,567.2" stroke="#635D46" stroke-width="4.2" stroke-linecap="round" fill="none"/><path d="M245,562.2 Q302,522.6 359,562.2 Q302,552.3 245,562.2 Z" fill="#635D46"/>
<path d="M0,684 C125,684 125,672 250,672 C375,672 375,690 500,690 C625,690 625,670 750,670 C875,670 875,682 1000,682 L1000,750 L0,750 Z" fill="#877959"/>
<path d="M806,724 L806,596.8" stroke="#3E3B2C" stroke-width="10.6" stroke-linecap="round" fill="none"/><path d="M806,630.7 L759.4,579.8 M806,618 L856.9,575.6" stroke="#3E3B2C" stroke-width="7.2" stroke-linecap="round" fill="none"/><path d="M708.5,567.1 Q806,499.3 903.5,567.1 Q806,550.2 708.5,567.1 Z" fill="#3E3B2C"/>
<path d="M918,730 L918,642.4" stroke="#3E3B2C" stroke-width="7.3" stroke-linecap="round" fill="none"/><path d="M918,665.8 L885.9,630.7 M918,657 L953,627.8" stroke="#3E3B2C" stroke-width="5" stroke-linecap="round" fill="none"/><path d="M850.8,622 Q918,575.2 985.2,622 Q918,610.3 850.8,622 Z" fill="#3E3B2C"/>
<path d="M0,736 C125,736 125,726 250,726 C375,726 375,742 500,742 C625,742 625,724 750,724 C875,724 875,734 1000,734 L1000,750 L0,750 Z" fill="#5D543E"/>
<g opacity="0.5"><path d="M239,216 Q244.5,209.2 250,216 Q255.5,209.2 261,216" fill="none" stroke="#B08D6A" stroke-width="2.2" stroke-linecap="round"/><path d="M285,194 Q290.5,187.2 296,194 Q301.5,187.2 307,194" fill="none" stroke="#B08D6A" stroke-width="2.2" stroke-linecap="round"/><path d="M327,224 Q332.5,217.2 338,224 Q343.5,217.2 349,224" fill="none" stroke="#B08D6A" stroke-width="2.2" stroke-linecap="round"/></g>
<rect width="1000" height="750" fill="url(#veu)"/>
</svg>
