<svg xmlns="http://www.w3.org/2000/svg" viewBox="0 0 1000 750" width="1000" height="750" role="img" aria-label="Ilustracao das terras altas da Escocia: colinas verdes, ponte sobre o rio e garoa">
<title>Ilustracao das terras altas da Escocia: colinas verdes, ponte sobre o rio e garoa</title>
<defs><linearGradient id="ceu" x1="0" y1="0" x2="0" y2="1"><stop offset="0" stop-color="#DCE0DC"/><stop offset="0.4" stop-color="#D6DCD7"/><stop offset="0.74" stop-color="#DBDCD2"/><stop offset="1" stop-color="#CFD5CC"/></linearGradient><linearGradient id="rio2021" x1="0" y1="0" x2="0" y2="1"><stop offset="0" stop-color="#AFBAB4"/><stop offset="1" stop-color="#8C9A95"/></linearGradient><radialGradient id="brilho" cx="70%" cy="28.5%" r="46%"><stop offset="0" stop-color="#F0F1E8" stop-opacity="0.62"/><stop offset="0.42" stop-color="#F0F1E8" stop-opacity="0.2"/><stop offset="1" stop-color="#F0F1E8" stop-opacity="0"/></radialGradient><linearGradient id="veu" x1="0" y1="0" x2="0" y2="1"><stop offset="0" stop-color="#F1ECE2" stop-opacity="0.14"/><stop offset="0.5" stop-color="#F1ECE2" stop-opacity="0.02"/><stop offset="1" stop-color="#2A2A22" stop-opacity="0.1"/></linearGradient></defs>
<rect width="1000" height="750" fill="url(#ceu)"/>
<rect width="1000" height="750" fill="url(#brilho)"/>
<circle cx="700" cy="214" r="48" fill="#DDD7C2" opacity="0.7"/>
<g opacity="0.55" fill="#C3CAC5"><ellipse cx="240" cy="176" rx="180" ry="46.8"/><ellipse cx="146.4" cy="191" rx="108" ry="35.6"/><ellipse cx="340.8" cy="189.1" rx="100.8" ry="33.7"/></g>
<g opacity="0.4" fill="#C3CAC5"><ellipse cx="760" cy="230" rx="140" ry="36.4"/><ellipse cx="687.2" cy="241.6" rx="84" ry="27.7"/><ellipse cx="838.4" cy="240.2" rx="78.4" ry="26.2"/></g>
<path d="M0,498 C83.3,498 83.3,452 166.7,452 C250,452 250,500 333.3,500 C416.7,500 416.7,444 500,444 C583.3,444 583.3,492 666.7,492 C750,492 750,462 833.3,462 C916.7,462 916.7,506 1000,506 L1000,580 L0,580 Z" fill="#A8B3A9" opacity="0.75"/>
<path d="M0,556 C83.3,556 83.3,518 166.7,518 C250,518 250,562 333.3,562 C416.7,562 416.7,508 500,508 C583.3,508 583.3,552 666.7,552 C750,552 750,528 833.3,528 C916.7,528 916.7,566 1000,566 L1000,620 L0,620 Z" fill="#8A9A8A"/>
<rect x="0" y="614" width="1000" height="136" fill="url(#rio2021)"/>
<rect x="0" y="570" width="1000" height="14" fill="#5F6A62"/><path d="M40,584 Q170,488 300,584 L300,584 Q170,512 40,584 Z" fill="#5F6A62"/><rect x="28" y="570" width="24" height="52" fill="#5F6A62"/><path d="M370,584 Q500,488 630,584 L630,584 Q500,512 370,584 Z" fill="#5F6A62"/><rect x="358" y="570" width="24" height="52" fill="#5F6A62"/><path d="M700,584 Q830,488 960,584 L960,584 Q830,512 700,584 Z" fill="#5F6A62"/><rect x="688" y="570" width="24" height="52" fill="#5F6A62"/>
<rect x="249.7" y="645.9" width="147.6" height="2.6" rx="1.3" fill="#E7EBE7" opacity="0.28"/><rect x="364.8" y="652" width="61.8" height="2.6" rx="1.3" fill="#E7EBE7" opacity="0.28"/><rect x="627.3" y="656.1" width="259.1" height="2.6" rx="1.3" fill="#E7EBE7" opacity="0.28"/><rect x="192.9" y="663.7" width="171.9" height="2.6" rx="1.3" fill="#E7EBE7" opacity="0.28"/><rect x="144.9" y="669.1" width="210.9" height="2.6" rx="1.3" fill="#E7EBE7" opacity="0.28"/><rect x="485.3" y="675" width="64.9" height="2.6" rx="1.3" fill="#E7EBE7" opacity="0.28"/><rect x="269" y="677.3" width="218.6" height="2.6" rx="1.3" fill="#E7EBE7" opacity="0.28"/><rect x="290.2" y="682" width="232.1" height="2.6" rx="1.3" fill="#E7EBE7" opacity="0.28"/><rect x="369.9" y="690" width="162.4" height="2.6" rx="1.3" fill="#E7EBE7" opacity="0.28"/><rect x="336.3" y="693.3" width="129.7" height="2.6" rx="1.3" fill="#E7EBE7" opacity="0.28"/><rect x="492.4" y="697.6" width="218.1" height="2.6" rx="1.3" fill="#E7EBE7" opacity="0.28"/><rect x="248.6" y="702.8" width="235.8" height="2.6" rx="1.3" fill="#E7EBE7" opacity="0.28"/>
<path d="M0,696 C125,696 125,682 250,682 C375,682 375,702 500,702 C625,702 625,680 750,680 C875,680 875,694 1000,694 L1000,750 L0,750 Z" fill="#57685C"/>
<rect x="91.8" y="658.5" width="8.4" height="69" fill="#3F5246"/><ellipse cx="96" cy="631.5" rx="72.6" ry="62.4" fill="#3F5246"/>
<rect x="182.9" y="681.6" width="6.3" height="51.5" fill="#3F5246"/><ellipse cx="186" cy="661.4" rx="49.3" ry="42.4" fill="#3F5246"/>
<rect x="894.2" y="666.8" width="7.6" height="62.6" fill="#3F5246"/><ellipse cx="898" cy="642.3" rx="62.8" ry="54" fill="#3F5246"/>
<g opacity="0.22"><path d="M279.5,639.2 L271.7,674.5" stroke="#F0F2EE" stroke-width="1.6" stroke-linecap="round"/><path d="M20.3,437.9 L7.3,497.1" stroke="#F0F2EE" stroke-width="1.6" stroke-linecap="round"/><path d="M962.7,54.1 L953.1,97.7" stroke="#F0F2EE" stroke-width="1.6" stroke-linecap="round"/><path d="M522.8,163.9 L515.5,197" stroke="#F0F2EE" stroke-width="1.6" stroke-linecap="round"/><path d="M624.1,344.7 L614.6,387.9" stroke="#F0F2EE" stroke-width="1.6" stroke-linecap="round"/><path d="M107.1,102.4 L94.4,160.4" stroke="#F0F2EE" stroke-width="1.6" stroke-linecap="round"/><path d="M-16.2,0.4 L-22.6,29.2" stroke="#F0F2EE" stroke-width="1.6" stroke-linecap="round"/><path d="M960.4,205.4 L949.8,253.6" stroke="#F0F2EE" stroke-width="1.6" stroke-linecap="round"/><path d="M300.9,449.1 L290.2,497.8" stroke="#F0F2EE" stroke-width="1.6" stroke-linecap="round"/><path d="M294.2,350.4 L281.5,407.9" stroke="#F0F2EE" stroke-width="1.6" stroke-linecap="round"/><path d="M1058.4,560.8 L1052.5,587.6" stroke="#F0F2EE" stroke-width="1.6" stroke-linecap="round"/><path d="M256.7,475.8 L249,510.7" stroke="#F0F2EE" stroke-width="1.6" stroke-linecap="round"/><path d="M832.5,225 L823.7,264.9" stroke="#F0F2EE" stroke-width="1.6" stroke-linecap="round"/><path d="M961.9,623.6 L948.7,683.3" stroke="#F0F2EE" stroke-width="1.6" stroke-linecap="round"/><path d="M391.9,31.5 L382,76.6" stroke="#F0F2EE" stroke-width="1.6" stroke-linecap="round"/><path d="M-48.5,502.1 L-60.2,554.9" stroke="#F0F2EE" stroke-width="1.6" stroke-linecap="round"/><path d="M864.2,502.4 L855.4,542.3" stroke="#F0F2EE" stroke-width="1.6" stroke-linecap="round"/><path d="M958.4,398.7 L947.6,447.5" stroke="#F0F2EE" stroke-width="1.6" stroke-linecap="round"/><path d="M145.2,480 L136.5,519.4" stroke="#F0F2EE" stroke-width="1.6" stroke-linecap="round"/><path d="M104.5,584.9 L98,614.2" stroke="#F0F2EE" stroke-width="1.6" stroke-linecap="round"/><path d="M45.1,312.3 L38.8,340.7" stroke="#F0F2EE" stroke-width="1.6" stroke-linecap="round"/><path d="M309.2,398.1 L302.4,429.3" stroke="#F0F2EE" stroke-width="1.6" stroke-linecap="round"/><path d="M-56.6,292 L-62.6,319.2" stroke="#F0F2EE" stroke-width="1.6" stroke-linecap="round"/><path d="M143.4,314.2 L130.4,373.7" stroke="#F0F2EE" stroke-width="1.6" stroke-linecap="round"/><path d="M245.8,240.7 L237.6,278.1" stroke="#F0F2EE" stroke-width="1.6" stroke-linecap="round"/><path d="M897.6,266.4 L890.1,300.6" stroke="#F0F2EE" stroke-width="1.6" stroke-linecap="round"/><path d="M238.3,72.1 L227.3,122.4" stroke="#F0F2EE" stroke-width="1.6" stroke-linecap="round"/><path d="M125.1,84.7 L117.7,118.6" stroke="#F0F2EE" stroke-width="1.6" stroke-linecap="round"/><path d="M455.6,276.6 L444.2,328.1" stroke="#F0F2EE" stroke-width="1.6" stroke-linecap="round"/><path d="M-11.3,50.1 L-21,94.4" stroke="#F0F2EE" stroke-width="1.6" stroke-linecap="round"/><path d="M566,321.7 L560.2,348" stroke="#F0F2EE" stroke-width="1.6" stroke-linecap="round"/><path d="M220.8,437.9 L209,491.5" stroke="#F0F2EE" stroke-width="1.6" stroke-linecap="round"/><path d="M1021,411.3 L1014.3,441.6" stroke="#F0F2EE" stroke-width="1.6" stroke-linecap="round"/><path d="M869.7,396.8 L862.1,431.3" stroke="#F0F2EE" stroke-width="1.6" stroke-linecap="round"/><path d="M662.1,287.2 L650.9,338.4" stroke="#F0F2EE" stroke-width="1.6" stroke-linecap="round"/><path d="M999,532.9 L990.5,571.6" stroke="#F0F2EE" stroke-width="1.6" stroke-linecap="round"/><path d="M689,521.8 L680.2,561.7" stroke="#F0F2EE" stroke-width="1.6" stroke-linecap="round"/><path d="M198.8,60.5 L188.9,105.6" stroke="#F0F2EE" stroke-width="1.6" stroke-linecap="round"/><path d="M358.2,549.4 L346.1,604.2" stroke="#F0F2EE" stroke-width="1.6" stroke-linecap="round"/><path d="M638.7,22.6 L629.3,65.4" stroke="#F0F2EE" stroke-width="1.6" stroke-linecap="round"/><path d="M436.5,446.5 L426.1,493.6" stroke="#F0F2EE" stroke-width="1.6" stroke-linecap="round"/><path d="M414.7,-20.9 L405.4,21.6" stroke="#F0F2EE" stroke-width="1.6" stroke-linecap="round"/><path d="M60.4,199.7 L53,233.4" stroke="#F0F2EE" stroke-width="1.6" stroke-linecap="round"/><path d="M44.1,385.4 L35.9,422.9" stroke="#F0F2EE" stroke-width="1.6" stroke-linecap="round"/><path d="M349.5,635.9 L336.6,694.7" stroke="#F0F2EE" stroke-width="1.6" stroke-linecap="round"/><path d="M640.8,262.1 L630.7,308" stroke="#F0F2EE" stroke-width="1.6" stroke-linecap="round"/><path d="M534.2,623.6 L522.8,675.6" stroke="#F0F2EE" stroke-width="1.6" stroke-linecap="round"/><path d="M234.9,540.9 L224.6,587.6" stroke="#F0F2EE" stroke-width="1.6" stroke-linecap="round"/><path d="M733.6,436 L724.3,478.2" stroke="#F0F2EE" stroke-width="1.6" stroke-linecap="round"/><path d="M433.9,402.9 L427.6,431.5" stroke="#F0F2EE" stroke-width="1.6" stroke-linecap="round"/><path d="M996.8,85.4 L990.5,114.1" stroke="#F0F2EE" stroke-width="1.6" stroke-linecap="round"/><path d="M183.2,649.9 L177,677.8" stroke="#F0F2EE" stroke-width="1.6" stroke-linecap="round"/><path d="M998.6,336.6 L986.7,390.7" stroke="#F0F2EE" stroke-width="1.6" stroke-linecap="round"/><path d="M613.1,604.4 L606.7,633.6" stroke="#F0F2EE" stroke-width="1.6" stroke-linecap="round"/><path d="M399.7,586.9 L389.1,634.7" stroke="#F0F2EE" stroke-width="1.6" stroke-linecap="round"/><path d="M191,175.6 L178.9,230.8" stroke="#F0F2EE" stroke-width="1.6" stroke-linecap="round"/><path d="M220.6,-6.1 L214.1,23.6" stroke="#F0F2EE" stroke-width="1.6" stroke-linecap="round"/><path d="M238.7,182.5 L231.4,215.7" stroke="#F0F2EE" stroke-width="1.6" stroke-linecap="round"/><path d="M344.9,342.7 L336.7,380.1" stroke="#F0F2EE" stroke-width="1.6" stroke-linecap="round"/><path d="M499.8,257.8 L489.4,305" stroke="#F0F2EE" stroke-width="1.6" stroke-linecap="round"/><path d="M202.5,108.9 L191.1,160.6" stroke="#F0F2EE" stroke-width="1.6" stroke-linecap="round"/><path d="M295.2,386.2 L286.1,427.9" stroke="#F0F2EE" stroke-width="1.6" stroke-linecap="round"/><path d="M516.4,-5.7 L505.9,42.1" stroke="#F0F2EE" stroke-width="1.6" stroke-linecap="round"/><path d="M784.3,326.3 L771.8,383.2" stroke="#F0F2EE" stroke-width="1.6" stroke-linecap="round"/><path d="M936.2,319 L923.4,377.1" stroke="#F0F2EE" stroke-width="1.6" stroke-linecap="round"/><path d="M270.2,248.6 L261.2,289.5" stroke="#F0F2EE" stroke-width="1.6" stroke-linecap="round"/><path d="M189,457.8 L176.3,515.5" stroke="#F0F2EE" stroke-width="1.6" stroke-linecap="round"/><path d="M865,55.3 L856.2,95" stroke="#F0F2EE" stroke-width="1.6" stroke-linecap="round"/><path d="M1049.9,137.9 L1043.9,165.2" stroke="#F0F2EE" stroke-width="1.6" stroke-linecap="round"/><path d="M981.8,157.6 L974.1,192.7" stroke="#F0F2EE" stroke-width="1.6" stroke-linecap="round"/><path d="M618.4,574.9 L607.8,623.1" stroke="#F0F2EE" stroke-width="1.6" stroke-linecap="round"/><path d="M1009,434.9 L1001.2,470.2" stroke="#F0F2EE" stroke-width="1.6" stroke-linecap="round"/><path d="M421.4,348.6 L415.5,375.4" stroke="#F0F2EE" stroke-width="1.6" stroke-linecap="round"/><path d="M407.6,10.1 L398.2,52.9" stroke="#F0F2EE" stroke-width="1.6" stroke-linecap="round"/><path d="M33.9,113.6 L26,149.8" stroke="#F0F2EE" stroke-width="1.6" stroke-linecap="round"/><path d="M474.2,12.6 L466.8,45.9" stroke="#F0F2EE" stroke-width="1.6" stroke-linecap="round"/><path d="M180.5,334.8 L167.6,393.3" stroke="#F0F2EE" stroke-width="1.6" stroke-linecap="round"/><path d="M906.7,-9.8 L899.7,22.2" stroke="#F0F2EE" stroke-width="1.6" stroke-linecap="round"/><path d="M116.6,537.8 L106.9,581.8" stroke="#F0F2EE" stroke-width="1.6" stroke-linecap="round"/><path d="M-52,29.1 L-59.9,65" stroke="#F0F2EE" stroke-width="1.6" stroke-linecap="round"/><path d="M83.4,306.7 L71.2,362" stroke="#F0F2EE" stroke-width="1.6" stroke-linecap="round"/><path d="M587.9,283.3 L576.7,334.3" stroke="#F0F2EE" stroke-width="1.6" stroke-linecap="round"/><path d="M565.6,342.1 L554.1,394.2" stroke="#F0F2EE" stroke-width="1.6" stroke-linecap="round"/><path d="M373.3,152.5 L363.3,198.1" stroke="#F0F2EE" stroke-width="1.6" stroke-linecap="round"/><path d="M241.7,56.1 L231.6,102.4" stroke="#F0F2EE" stroke-width="1.6" stroke-linecap="round"/><path d="M97,416.7 L88.4,455.7" stroke="#F0F2EE" stroke-width="1.6" stroke-linecap="round"/><path d="M74.5,121.3 L67.5,152.9" stroke="#F0F2EE" stroke-width="1.6" stroke-linecap="round"/><path d="M1014.5,285.4 L1007.8,316.1" stroke="#F0F2EE" stroke-width="1.6" stroke-linecap="round"/><path d="M1027.5,45.5 L1016.8,94.2" stroke="#F0F2EE" stroke-width="1.6" stroke-linecap="round"/><path d="M374.4,490.9 L367.9,520.6" stroke="#F0F2EE" stroke-width="1.6" stroke-linecap="round"/></g>
<path d="M0,742 C125,742 125,734 250,734 C375,734 375,746 500,746 C625,746 625,732 750,732 C875,732 875,740 1000,740 L1000,750 L0,750 Z" fill="#33443A"/>
<rect width="1000" height="750" fill="url(#veu)"/>
</svg>
