<svg xmlns="http://www.w3.org/2000/svg" viewBox="0 0 1000 750" width="1000" height="750" role="img" aria-label="Ilustracao do Egito: dunas do deserto encontrando o Mar Vermelho sob sol forte">
<title>Ilustracao do Egito: dunas do deserto encontrando o Mar Vermelho sob sol forte</title>
<defs><linearGradient id="ceu" x1="0" y1="0" x2="0" y2="1"><stop offset="0" stop-color="#F8ECD9"/><stop offset="0.36" stop-color="#F4E0C6"/><stop offset="0.7" stop-color="#EBD5B6"/><stop offset="1" stop-color="#E0C6A4"/></linearGradient><linearGradient id="mar2022" x1="0" y1="0" x2="0" y2="1"><stop offset="0" stop-color="#A8C3BE"/><stop offset="1" stop-color="#7FA39F"/></linearGradient><radialGradient id="brilho" cx="66%" cy="30.9%" r="46%"><stop offset="0" stop-color="#FCF0DD" stop-opacity="0.62"/><stop offset="0.42" stop-color="#FCF0DD" stop-opacity="0.2"/><stop offset="1" stop-color="#FCF0DD" stop-opacity="0"/></radialGradient><linearGradient id="veu" x1="0" y1="0" x2="0" y2="1"><stop offset="0" stop-color="#F1ECE2" stop-opacity="0.14"/><stop offset="0.5" stop-color="#F1ECE2" stop-opacity="0.02"/><stop offset="1" stop-color="#2A2A22" stop-opacity="0.1"/></linearGradient></defs>
<rect width="1000" height="750" fill="url(#ceu)"/>
<rect width="1000" height="750" fill="url(#brilho)"/>
<circle cx="660" cy="232" r="153.6" fill="none" stroke="#E6B27F" stroke-width="2" opacity=".3"/>
<circle cx="660" cy="232" r="96" fill="#E6B27F" opacity="1"/>
<path d="M0,498 L180,430 L330,490 L470,436 L640,496 L820,448 L1000,502 L1000,566 L0,566 Z" fill="#C8AE8C" opacity="0.6"/>
<rect x="0" y="560" width="1000" height="190" fill="url(#mar2022)"/>
<rect x="304.3" y="576" width="146.6" height="2.6" rx="1.3" fill="#E8F1EC" opacity="0.26"/><rect x="670" y="581.8" width="200.9" height="2.6" rx="1.3" fill="#E8F1EC" opacity="0.26"/><rect x="35.3" y="590.7" width="81.8" height="2.6" rx="1.3" fill="#E8F1EC" opacity="0.26"/><rect x="248.6" y="597.8" width="168.1" height="2.6" rx="1.3" fill="#E8F1EC" opacity="0.26"/><rect x="165.8" y="599.3" width="198.3" height="2.6" rx="1.3" fill="#E8F1EC" opacity="0.26"/><rect x="731.8" y="604.7" width="142.5" height="2.6" rx="1.3" fill="#E8F1EC" opacity="0.26"/><rect x="484.8" y="615.7" width="115.6" height="2.6" rx="1.3" fill="#E8F1EC" opacity="0.26"/><rect x="784.9" y="620.1" width="178.6" height="2.6" rx="1.3" fill="#E8F1EC" opacity="0.26"/><rect x="561.8" y="624.2" width="103.6" height="2.6" rx="1.3" fill="#E8F1EC" opacity="0.26"/><rect x="879.1" y="630" width="91.3" height="2.6" rx="1.3" fill="#E8F1EC" opacity="0.26"/><rect x="744.7" y="635.5" width="94.8" height="2.6" rx="1.3" fill="#E8F1EC" opacity="0.26"/><rect x="512.1" y="644" width="181.7" height="2.6" rx="1.3" fill="#E8F1EC" opacity="0.26"/>
<path d="M0,646 C83.3,646 83.3,618 166.7,618 C250,618 250,654 333.3,654 C416.7,654 416.7,612 500,612 C583.3,612 583.3,644 666.7,644 C750,644 750,626 833.3,626 C916.7,626 916.7,650 1000,650 L1000,750 L0,750 Z" fill="#D8BD95"/>
<path d="M0,692 C83.3,692 83.3,668 166.7,668 C250,668 250,700 333.3,700 C416.7,700 416.7,664 500,664 C583.3,664 583.3,690 666.7,690 C750,690 750,674 833.3,674 C916.7,674 916.7,696 1000,696 L1000,750 L0,750 Z" fill="#C2A67E"/>
<path d="M0,730 C125,730 125,714 250,714 C375,714 375,736 500,736 C625,736 625,710 750,710 C875,710 875,728 1000,728 L1000,750 L0,750 Z" fill="#A88962"/>
<path d="M122,744 Q120,635.1 92.3,546" fill="none" stroke="#6B5438" stroke-width="8.9" stroke-linecap="round"/><path d="M92.3,546 Q53.6,524.3 17.9,558" fill="none" stroke="#6B5438" stroke-width="6.3" stroke-linecap="round"/><path d="M92.3,546 Q66.9,496.1 43.5,538.6" fill="none" stroke="#6B5438" stroke-width="6.3" stroke-linecap="round"/><path d="M92.3,546 Q88,483 84,529.6" fill="none" stroke="#6B5438" stroke-width="6.3" stroke-linecap="round"/><path d="M92.3,546 Q110.4,489.1 127,533.8" fill="none" stroke="#6B5438" stroke-width="6.3" stroke-linecap="round"/><path d="M92.3,546 Q127.2,512.4 159.5,549.8" fill="none" stroke="#6B5438" stroke-width="6.3" stroke-linecap="round"/><path d="M92.3,546 Q133.1,554.8 170.7,579" fill="none" stroke="#6B5438" stroke-width="6.3" stroke-linecap="round"/><circle cx="92.3" cy="546" r="5.1" fill="#6B5438"/>
<path d="M196,750 Q197.5,667.5 218.5,600" fill="none" stroke="#6B5438" stroke-width="6.8" stroke-linecap="round"/><path d="M218.5,600 Q189.2,583.6 162.1,609.1" fill="none" stroke="#6B5438" stroke-width="4.8" stroke-linecap="round"/><path d="M218.5,600 Q199.3,562.2 181.6,594.4" fill="none" stroke="#6B5438" stroke-width="4.8" stroke-linecap="round"/><path d="M218.5,600 Q215.2,552.3 212.2,587.6" fill="none" stroke="#6B5438" stroke-width="4.8" stroke-linecap="round"/><path d="M218.5,600 Q232.2,556.9 244.8,590.7" fill="none" stroke="#6B5438" stroke-width="4.8" stroke-linecap="round"/><path d="M218.5,600 Q245,574.6 269.4,602.9" fill="none" stroke="#6B5438" stroke-width="4.8" stroke-linecap="round"/><path d="M218.5,600 Q249.4,606.7 277.9,625" fill="none" stroke="#6B5438" stroke-width="4.8" stroke-linecap="round"/><circle cx="218.5" cy="600" r="3.9" fill="#6B5438"/>
<g opacity="0.45"><path d="M282.1,190 Q287.1,183.9 292,190 Q297,183.9 301.9,190" fill="none" stroke="#C09A6E" stroke-width="2" stroke-linecap="round"/><path d="M323.5,170.2 Q328.5,164.1 333.4,170.2 Q338.3,164.1 343.3,170.2" fill="none" stroke="#C09A6E" stroke-width="2" stroke-linecap="round"/><path d="M361.3,197.2 Q366.3,191.1 371.2,197.2 Q376.2,191.1 381.1,197.2" fill="none" stroke="#C09A6E" stroke-width="2" stroke-linecap="round"/></g>
<rect width="1000" height="750" fill="url(#veu)"/>
</svg>
