<svg xmlns="http://www.w3.org/2000/svg" viewBox="0 0 1000 750" width="1000" height="750" role="img" aria-label="Ilustracao da Holanda: moinho de vento, casas de canal com empenas escalonadas e agua parada">
<title>Ilustracao da Holanda: moinho de vento, casas de canal com empenas escalonadas e agua parada</title>
<defs><linearGradient id="ceu" x1="0" y1="0" x2="0" y2="1"><stop offset="0" stop-color="#E9E6DE"/><stop offset="0.42" stop-color="#DFE1DE"/><stop offset="1" stop-color="#D2DAD9"/></linearGradient><linearGradient id="canal2000" x1="0" y1="0" x2="0" y2="1"><stop offset="0" stop-color="#B9C7C6"/><stop offset="1" stop-color="#94A6A8"/></linearGradient><radialGradient id="brilho" cx="70.6%" cy="28.8%" r="46%"><stop offset="0" stop-color="#F3EEE4" stop-opacity="0.62"/><stop offset="0.42" stop-color="#F3EEE4" stop-opacity="0.2"/><stop offset="1" stop-color="#F3EEE4" stop-opacity="0"/></radialGradient><linearGradient id="veu" x1="0" y1="0" x2="0" y2="1"><stop offset="0" stop-color="#F1ECE2" stop-opacity="0.14"/><stop offset="0.5" stop-color="#F1ECE2" stop-opacity="0.02"/><stop offset="1" stop-color="#2A2A22" stop-opacity="0.1"/></linearGradient></defs>
<rect width="1000" height="750" fill="url(#ceu)"/>
<rect width="1000" height="750" fill="url(#brilho)"/>
<circle cx="706" cy="216" r="50" fill="#DED2BC" opacity="0.85"/>
<g opacity="0.55" fill="#C6CECF"><ellipse cx="250" cy="180" rx="165" ry="42.9"/><ellipse cx="164.2" cy="193.7" rx="99" ry="32.6"/><ellipse cx="342.4" cy="192" rx="92.4" ry="30.9"/></g>
<g opacity="0.4" fill="#C6CECF"><ellipse cx="680" cy="268" rx="125" ry="32.5"/><ellipse cx="615" cy="278.4" rx="75" ry="24.7"/><ellipse cx="750" cy="277.1" rx="70" ry="23.4"/></g>
<path d="M0,560 C125,560 125,552 250,552 C375,552 375,562 500,562 C625,562 625,550 750,550 C875,550 875,560 1000,560 L1000,600 L0,600 Z" fill="#A9B3AE" opacity="0.7"/>
<rect x="44" y="480" width="82" height="132" fill="#7E837E"/><path d="M44,480 L44,467.7 L56.3,467.7 L56.3,455.4 L68.6,455.4 L68.6,443.1 L80.9,443.1 L85,434.5 L89.1,443.1 L101.4,443.1 L101.4,455.4 L113.7,455.4 L113.7,467.7 L126,467.7 L126,480 Z" fill="#7E837E"/>
<rect x="136" y="504" width="72" height="108" fill="#909490"/><path d="M136,504 L136,493.2 L146.8,493.2 L146.8,482.4 L157.6,482.4 L157.6,471.6 L168.4,471.6 L172,464 L175.6,471.6 L186.4,471.6 L186.4,482.4 L197.2,482.4 L197.2,493.2 L208,493.2 L208,504 Z" fill="#909490"/>
<rect x="218" y="466" width="86" height="146" fill="#6E7574"/><path d="M218,466 L218,453.1 L230.9,453.1 L230.9,440.2 L243.8,440.2 L243.8,427.3 L256.7,427.3 L261,418.3 L265.3,427.3 L278.2,427.3 L278.2,440.2 L291.1,440.2 L291.1,453.1 L304,453.1 L304,466 Z" fill="#6E7574"/>
<rect x="314" y="496" width="76" height="116" fill="#888D89"/><path d="M314,496 L314,484.6 L325.4,484.6 L325.4,473.2 L336.8,473.2 L336.8,461.8 L348.2,461.8 L352,453.8 L355.8,461.8 L367.2,461.8 L367.2,473.2 L378.6,473.2 L378.6,484.6 L390,484.6 L390,496 Z" fill="#888D89"/>
<rect x="400" y="516" width="66" height="96" fill="#737A79"/><path d="M400,516 L400,506.1 L409.9,506.1 L409.9,496.2 L419.8,496.2 L419.8,486.3 L429.7,486.3 L433,479.4 L436.3,486.3 L446.2,486.3 L446.2,496.2 L456.1,496.2 L456.1,506.1 L466,506.1 L466,516 Z" fill="#737A79"/>
<path d="M682,612 L716.8,436 L763.2,436 L798,612 Z" fill="#5E6564"/><rect x="710" y="408" width="60" height="32" rx="14" fill="#5E6564"/><path d="M740,408 L860.1,471.8" stroke="#5E6564" stroke-width="9" stroke-linecap="round"/><path d="M740,408 L676.2,528.1" stroke="#5E6564" stroke-width="9" stroke-linecap="round"/><path d="M740,408 L619.9,344.2" stroke="#5E6564" stroke-width="9" stroke-linecap="round"/><path d="M740,408 L803.8,287.9" stroke="#5E6564" stroke-width="9" stroke-linecap="round"/><circle cx="740" cy="408" r="8" fill="#5E6564"/>
<rect x="0" y="606" width="1000" height="34" fill="#6D736F"/>
<rect x="0" y="636" width="1000" height="114" fill="url(#canal2000)"/>
<g opacity=".16" transform="translate(0,1272) scale(1,-1)"><rect x="718" y="436" width="44" height="176" fill="#49524F"/></g>
<rect x="366.3" y="651.5" width="117.1" height="2.6" rx="1.3" fill="#EDF1F0" opacity="0.3"/><rect x="255" y="660.6" width="139.3" height="2.6" rx="1.3" fill="#EDF1F0" opacity="0.3"/><rect x="223.5" y="664" width="243.3" height="2.6" rx="1.3" fill="#EDF1F0" opacity="0.3"/><rect x="261.8" y="668.7" width="221.6" height="2.6" rx="1.3" fill="#EDF1F0" opacity="0.3"/><rect x="475.5" y="676.2" width="122" height="2.6" rx="1.3" fill="#EDF1F0" opacity="0.3"/><rect x="634.4" y="681.8" width="220" height="2.6" rx="1.3" fill="#EDF1F0" opacity="0.3"/><rect x="247.8" y="683.1" width="250.8" height="2.6" rx="1.3" fill="#EDF1F0" opacity="0.3"/><rect x="510" y="687.7" width="168.8" height="2.6" rx="1.3" fill="#EDF1F0" opacity="0.3"/><rect x="580.5" y="697.6" width="237.5" height="2.6" rx="1.3" fill="#EDF1F0" opacity="0.3"/><rect x="455.7" y="703.1" width="97.4" height="2.6" rx="1.3" fill="#EDF1F0" opacity="0.3"/><rect x="145.8" y="707.3" width="89.6" height="2.6" rx="1.3" fill="#EDF1F0" opacity="0.3"/><rect x="69.8" y="710.5" width="82" height="2.6" rx="1.3" fill="#EDF1F0" opacity="0.3"/><rect x="548.6" y="718.7" width="122.7" height="2.6" rx="1.3" fill="#EDF1F0" opacity="0.3"/><rect x="379.5" y="721.1" width="143.5" height="2.6" rx="1.3" fill="#EDF1F0" opacity="0.3"/>
<path d="M0,722 C125,722 125,712 250,712 C375,712 375,726 500,726 C625,726 625,710 750,710 C875,710 875,720 1000,720 L1000,750 L0,750 Z" fill="#4F5A59"/>
<rect width="1000" height="750" fill="url(#veu)"/>
</svg>
