<svg xmlns="http://www.w3.org/2000/svg" viewBox="0 0 1000 750" width="1000" height="750" role="img" aria-label="Ilustracao de Montreal no inverno: cupula geodesica, pinheiros e campo de neve">
<title>Ilustracao de Montreal no inverno: cupula geodesica, pinheiros e campo de neve</title>
<defs><linearGradient id="ceu" x1="0" y1="0" x2="0" y2="1"><stop offset="0" stop-color="#E7EAEC"/><stop offset="0.44" stop-color="#DFE4E7"/><stop offset="1" stop-color="#EDEAE3"/></linearGradient><radialGradient id="brilho" cx="25.8%" cy="28.3%" r="46%"><stop offset="0" stop-color="#F6F2E9" stop-opacity="0.62"/><stop offset="0.42" stop-color="#F6F2E9" stop-opacity="0.2"/><stop offset="1" stop-color="#F6F2E9" stop-opacity="0"/></radialGradient><linearGradient id="veu" x1="0" y1="0" x2="0" y2="1"><stop offset="0" stop-color="#F1ECE2" stop-opacity="0.14"/><stop offset="0.5" stop-color="#F1ECE2" stop-opacity="0.02"/><stop offset="1" stop-color="#2A2A22" stop-opacity="0.1"/></linearGradient></defs>
<rect width="1000" height="750" fill="url(#ceu)"/>
<rect width="1000" height="750" fill="url(#brilho)"/>
<circle cx="258" cy="212" r="52" fill="#E6DCC8" opacity="0.9"/>
<path d="M0,520 L140,448 L268,512 L420,430 L566,506 L700,452 L860,516 L1000,470 L1000,600 L0,600 Z" fill="#B9C0C3" opacity="0.72"/>
<circle cx="700" cy="486" r="118" fill="#C9D1D3" opacity=".55"/><circle cx="700" cy="486" r="118" fill="none" stroke="#78868A" stroke-width="3"/><ellipse cx="700" cy="486" rx="40.1" ry="118" fill="none" stroke="#78868A" stroke-width="2.2"/><ellipse cx="700" cy="486" rx="80.2" ry="118" fill="none" stroke="#78868A" stroke-width="2.2"/><line x1="582" y1="486" x2="818" y2="486" stroke="#78868A" stroke-width="2.2"/><line x1="605.6" y1="415.2" x2="794.4" y2="415.2" stroke="#78868A" stroke-width="2"/><line x1="587.4" y1="450.6" x2="812.6" y2="450.6" stroke="#78868A" stroke-width="2"/><line x1="587.4" y1="521.4" x2="812.6" y2="521.4" stroke="#78868A" stroke-width="2"/><line x1="605.6" y1="556.8" x2="794.4" y2="556.8" stroke="#78868A" stroke-width="2"/>
<path d="M0,604 C125,604 125,592 250,592 C375,592 375,606 500,606 C625,606 625,590 750,590 C875,590 875,602 1000,602 L1000,750 L0,750 Z" fill="#D8DBD6"/>
<rect x="103.3" y="608.2" width="9.3" height="33.9" fill="#4E6156"/><path d="M108,428 L147,521.3 L69,521.3 Z" fill="#4E6156"/><path d="M108,470.4 L176.3,563.7 L39.7,563.7 Z" fill="#4E6156"/><path d="M108,512.8 L205.5,606.1 L10.5,606.1 Z" fill="#4E6156"/>
<rect x="188.5" y="624.3" width="7" height="25.3" fill="#56695D"/><path d="M192,490 L221.1,559.5 L162.9,559.5 Z" fill="#56695D"/><path d="M192,521.6 L242.9,591.1 L141.1,591.1 Z" fill="#56695D"/><path d="M192,553.2 L264.7,622.7 L119.3,622.7 Z" fill="#56695D"/>
<rect x="261.9" y="614.1" width="8.2" height="29.8" fill="#4E6156"/><path d="M266,456 L300.2,537.8 L231.8,537.8 Z" fill="#4E6156"/><path d="M266,493.2 L325.9,575 L206.1,575 Z" fill="#4E6156"/><path d="M266,530.4 L351.6,612.2 L180.4,612.2 Z" fill="#4E6156"/>
<rect x="891.7" y="616.6" width="8.6" height="31.4" fill="#4E6156"/><path d="M896,450 L932.1,536.2 L859.9,536.2 Z" fill="#4E6156"/><path d="M896,489.2 L959.1,575.4 L832.9,575.4 Z" fill="#4E6156"/><path d="M896,528.4 L986.2,614.6 L805.8,614.6 Z" fill="#4E6156"/>
<rect x="952.7" y="629.8" width="6.5" height="23.7" fill="#56695D"/><path d="M956,504 L983.2,569.1 L928.8,569.1 Z" fill="#56695D"/><path d="M956,533.6 L1003.7,598.7 L908.3,598.7 Z" fill="#56695D"/><path d="M956,563.2 L1024.1,628.3 L887.9,628.3 Z" fill="#56695D"/>
<path d="M0,668 C125,668 125,656 250,656 C375,656 375,672 500,672 C625,672 625,654 750,654 C875,654 875,666 1000,666 L1000,750 L0,750 Z" fill="#E6E5DE"/>
<rect x="378.6" y="686.6" width="6.9" height="25" fill="#3B4A42"/><path d="M382,554 L410.7,622.6 L353.3,622.6 Z" fill="#3B4A42"/><path d="M382,585.2 L432.2,653.8 L331.8,653.8 Z" fill="#3B4A42"/><path d="M382,616.4 L453.8,685 L310.2,685 Z" fill="#3B4A42"/>
<rect x="449.4" y="698.6" width="5.1" height="18.6" fill="#3B4A42"/><path d="M452,600 L473.3,651 L430.7,651 Z" fill="#3B4A42"/><path d="M452,623.2 L489.4,674.2 L414.6,674.2 Z" fill="#3B4A42"/><path d="M452,646.4 L505.4,697.4 L398.6,697.4 Z" fill="#3B4A42"/>
<rect x="809" y="693.3" width="6.1" height="22.1" fill="#3B4A42"/><path d="M812,576 L837.4,636.7 L786.6,636.7 Z" fill="#3B4A42"/><path d="M812,603.6 L856.4,664.3 L767.6,664.3 Z" fill="#3B4A42"/><path d="M812,631.2 L875.5,691.9 L748.5,691.9 Z" fill="#3B4A42"/>
<path d="M0,724 C125,724 125,714 250,714 C375,714 375,730 500,730 C625,730 625,712 750,712 C875,712 875,722 1000,722 L1000,750 L0,750 Z" fill="#F0EDE5"/>
<rect width="1000" height="750" fill="url(#veu)"/>
</svg>
