<svg xmlns="http://www.w3.org/2000/svg" viewBox="0 0 1000 750" width="1000" height="750" role="img" aria-label="Ilustracao da Terra vista do espaco com uma pluma de metano detectada por satelite">
<title>Ilustracao da Terra vista do espaco com uma pluma de metano detectada por satelite</title>
<defs>
<filter id="borrao" x="-25%" y="-25%" width="150%" height="150%"><feGaussianBlur stdDeviation="18"/></filter>
<linearGradient id="espaco" x1="0" y1="0" x2="0" y2="1"><stop offset="0" stop-color="#0C1428"/><stop offset="0.6" stop-color="#14203A"/><stop offset="1" stop-color="#1D2E45"/></linearGradient><linearGradient id="veu" x1="0" y1="0" x2="0" y2="1"><stop offset="0" stop-color="#F1ECE2" stop-opacity="0.12"/><stop offset="0.5" stop-color="#F1ECE2" stop-opacity="0.02"/><stop offset="1" stop-color="#1A2014" stop-opacity="0.12"/></linearGradient></defs>
<rect width="1000" height="750" fill="url(#espaco)"/><circle cx="787.25" cy="93.74" r="1.89" fill="#F2F0E6" opacity="0.39"/><circle cx="375.79" cy="437.51" r="2.55" fill="#F2F0E6" opacity="0.81"/><circle cx="784.29" cy="214.77" r="2.11" fill="#F2F0E6" opacity="0.84"/><circle cx="188.44" cy="5.63" r="2.06" fill="#F2F0E6" opacity="0.46"/><circle cx="521.08" cy="309.62" r="1.38" fill="#F2F0E6" opacity="0.55"/><circle cx="680.94" cy="80.26" r="1.07" fill="#F2F0E6" opacity="0.32"/><circle cx="529.99" cy="430.39" r="1.47" fill="#F2F0E6" opacity="0.59"/><circle cx="927.97" cy="371.86" r="2.72" fill="#F2F0E6" opacity="0.3"/><circle cx="600.66" cy="216.67" r="2.47" fill="#F2F0E6" opacity="0.53"/><circle cx="537.31" cy="103.66" r="2.67" fill="#F2F0E6" opacity="0.6"/><circle cx="226.12" cy="134.8" r="1.61" fill="#F2F0E6" opacity="0.53"/><circle cx="843.84" cy="494.98" r="1.89" fill="#F2F0E6" opacity="0.45"/><circle cx="74.31" cy="178.65" r="2.07" fill="#F2F0E6" opacity="0.26"/><circle cx="553.72" cy="248.42" r="2.44" fill="#F2F0E6" opacity="0.43"/><circle cx="893.13" cy="88.35" r="2.01" fill="#F2F0E6" opacity="0.76"/><circle cx="297.9" cy="278.8" r="1.74" fill="#F2F0E6" opacity="0.35"/><circle cx="150.55" cy="496.95" r="2.33" fill="#F2F0E6" opacity="0.74"/><circle cx="333.57" cy="133.65" r="1.41" fill="#F2F0E6" opacity="0.79"/><circle cx="194.62" cy="37.45" r="1.7" fill="#F2F0E6" opacity="0.83"/><circle cx="547.78" cy="497.08" r="1.97" fill="#F2F0E6" opacity="0.55"/><circle cx="182.02" cy="390.56" r="1.91" fill="#F2F0E6" opacity="0.84"/><circle cx="706.62" cy="173.87" r="2.08" fill="#F2F0E6" opacity="0.51"/><circle cx="505.78" cy="150.21" r="1.16" fill="#F2F0E6" opacity="0.72"/><circle cx="559.67" cy="113.26" r="2.58" fill="#F2F0E6" opacity="0.41"/><circle cx="618.65" cy="382.32" r="1.68" fill="#F2F0E6" opacity="0.39"/><circle cx="317.44" cy="173.61" r="1.15" fill="#F2F0E6" opacity="0.25"/><circle cx="541.51" cy="1.47" r="1.08" fill="#F2F0E6" opacity="0.54"/><circle cx="156.57" cy="398.39" r="1.3" fill="#F2F0E6" opacity="0.69"/><circle cx="1.6" cy="324.3" r="1.38" fill="#F2F0E6" opacity="0.48"/><circle cx="288.39" cy="494.78" r="1.82" fill="#F2F0E6" opacity="0.4"/><circle cx="89.91" cy="344.5" r="1.79" fill="#F2F0E6" opacity="0.39"/><circle cx="508.03" cy="474.16" r="1.71" fill="#F2F0E6" opacity="0.45"/><circle cx="785.07" cy="56.86" r="1.12" fill="#F2F0E6" opacity="0.4"/><circle cx="573.15" cy="183.46" r="1.68" fill="#F2F0E6" opacity="0.57"/><circle cx="275.75" cy="170.6" r="1.61" fill="#F2F0E6" opacity="0.45"/><circle cx="588.25" cy="263.04" r="1.22" fill="#F2F0E6" opacity="0.35"/><circle cx="69.66" cy="77.53" r="2" fill="#F2F0E6" opacity="0.26"/><circle cx="210.52" cy="175.66" r="1.38" fill="#F2F0E6" opacity="0.75"/><circle cx="344.92" cy="290.69" r="2.63" fill="#F2F0E6" opacity="0.31"/><circle cx="983.59" cy="389.94" r="2.59" fill="#F2F0E6" opacity="0.47"/><circle cx="867.63" cy="121.15" r="1.98" fill="#F2F0E6" opacity="0.84"/><circle cx="248.51" cy="502.99" r="1.42" fill="#F2F0E6" opacity="0.3"/><circle cx="90.55" cy="299" r="1.14" fill="#F2F0E6" opacity="0.83"/><circle cx="650.59" cy="361.06" r="2.67" fill="#F2F0E6" opacity="0.35"/><circle cx="384.43" cy="338.23" r="2.21" fill="#F2F0E6" opacity="0.42"/><circle cx="384.38" cy="365.89" r="1.01" fill="#F2F0E6" opacity="0.82"/><circle cx="815.93" cy="213.16" r="1.44" fill="#F2F0E6" opacity="0.77"/><circle cx="626.19" cy="427.68" r="2.77" fill="#F2F0E6" opacity="0.64"/><circle cx="635.6" cy="123.72" r="1.24" fill="#F2F0E6" opacity="0.39"/><circle cx="436.64" cy="506.25" r="1.81" fill="#F2F0E6" opacity="0.63"/><circle cx="671.41" cy="31.85" r="1.81" fill="#F2F0E6" opacity="0.72"/><circle cx="822.89" cy="451" r="1.71" fill="#F2F0E6" opacity="0.55"/><circle cx="287.78" cy="219.99" r="1.51" fill="#F2F0E6" opacity="0.61"/><circle cx="249.51" cy="323.57" r="1.48" fill="#F2F0E6" opacity="0.41"/><circle cx="248.15" cy="443.58" r="2.35" fill="#F2F0E6" opacity="0.33"/><circle cx="725.76" cy="478.82" r="2.09" fill="#F2F0E6" opacity="0.65"/><circle cx="288.61" cy="137.14" r="1.96" fill="#F2F0E6" opacity="0.54"/><circle cx="91.77" cy="79.01" r="2.36" fill="#F2F0E6" opacity="0.7"/><circle cx="830.89" cy="332.35" r="2.59" fill="#F2F0E6" opacity="0.51"/><circle cx="521.74" cy="233.83" r="1.89" fill="#F2F0E6" opacity="0.42"/><circle cx="500" cy="1125" r="840" fill="#2C4A3C"/><circle cx="500" cy="1125" r="847.5" fill="none" stroke="#9FD0E0" stroke-width="15" opacity=".5" filter="url(#borrao)"/><path d="M120,465 q160,-75 300,-7.5 q120,52.5 20,105 q-200,45 -320,-97.5 Z" fill="#48664F" opacity=".9"/><path d="M620,585 q180,-75 300,15 q-120,90 -300,-15 Z" fill="#48664F" opacity=".75"/><ellipse cx="318.95" cy="540" rx="50" ry="22.5" fill="#C4562E" opacity="0.5" filter="url(#borrao)"/><ellipse cx="374.47" cy="533.57" rx="53.57" ry="24.11" fill="#C4562E" opacity="0.48" filter="url(#borrao)"/><ellipse cx="369.94" cy="527.14" rx="57.14" ry="25.71" fill="#C4562E" opacity="0.46" filter="url(#borrao)"/><ellipse cx="384.07" cy="520.71" rx="60.71" ry="27.32" fill="#C4562E" opacity="0.45" filter="url(#borrao)"/><ellipse cx="418.17" cy="514.29" rx="64.29" ry="28.93" fill="#C4562E" opacity="0.43" filter="url(#borrao)"/><ellipse cx="468.99" cy="507.86" rx="67.86" ry="30.54" fill="#C4562E" opacity="0.41" filter="url(#borrao)"/><ellipse cx="459.34" cy="501.43" rx="71.43" ry="32.14" fill="#C4562E" opacity="0.39" filter="url(#borrao)"/><ellipse cx="505.32" cy="495" rx="75" ry="33.75" fill="#C4562E" opacity="0.38" filter="url(#borrao)"/><ellipse cx="525.97" cy="488.57" rx="78.57" ry="35.36" fill="#C4562E" opacity="0.36" filter="url(#borrao)"/><ellipse cx="528.32" cy="482.14" rx="82.14" ry="36.96" fill="#D8A04A" opacity="0.34" filter="url(#borrao)"/><ellipse cx="533.6" cy="475.71" rx="85.71" ry="38.57" fill="#D8A04A" opacity="0.32" filter="url(#borrao)"/><ellipse cx="574.88" cy="469.29" rx="89.29" ry="40.18" fill="#D8A04A" opacity="0.3" filter="url(#borrao)"/><ellipse cx="621.33" cy="462.86" rx="92.86" ry="41.79" fill="#D8A04A" opacity="0.29" filter="url(#borrao)"/><ellipse cx="613.86" cy="456.43" rx="96.43" ry="43.39" fill="#D8A04A" opacity="0.27" filter="url(#borrao)"/><rect x="750" y="161.25" width="60" height="37.5" rx="8" fill="#E6E2D6"/><rect x="665" y="169.5" width="80" height="21" fill="#7FA7C4"/><rect x="815" y="169.5" width="80" height="21" fill="#7FA7C4"/><path d="M780,202.5 L450,510" stroke="#F0E4C6" stroke-width="2" opacity=".4" stroke-dasharray="8 10"/>
<rect width="1000" height="750" fill="url(#veu)"/>
</svg>
